<mxfile host="app.diagrams.net" modified="2023-07-09T11:55:21.374Z" agent="Mozilla/5.0 (X11; Ubuntu; Linux x86_64; rv:109.0) Gecko/20100101 Firefox/110.0" version="21.6.1" etag="Mar1kzRVqHlQk9OEXJjV" type="github">
  <diagram name="Page-1" id="npsC1K5vf8Hy_jDjsY1r">
    <mxGraphModel>
      <root>
        <mxCell id="0" />
        <mxCell id="1" parent="0" />
      </root>
    </mxGraphModel>
  </diagram>
</mxfile>
